<?xml version="1.0" encoding="UTF-8"?>
<!DOCTYPE svg PUBLIC "-//W3C//DTD SVG 1.1//EN" "http://www.w3.org/Graphics/SVG/1.1/DTD/svg11.dtd">
<!-- Creator: CorelDRAW X8 -->
<svg xmlns="http://www.w3.org/2000/svg" xml:space="preserve" width="529px" height="108px" version="1.1" style="shape-rendering:geometricPrecision; text-rendering:geometricPrecision; image-rendering:optimizeQuality; fill-rule:evenodd; clip-rule:evenodd"
viewBox="0 0 461 94"
 xmlns:xlink="http://www.w3.org/1999/xlink">
 <defs>
  <style type="text/css">
   <![CDATA[
    .str0 {stroke:#3B007A;stroke-width:2.57461;stroke-linecap:round}
    .fil0 {fill:#3B007A}
    .fil1 {fill:#3B007A;fill-rule:nonzero}
   ]]>
  </style>
 </defs>
 <g id="Camada_x0020_1">
  <metadata id="CorelCorpID_0Corel-Layer"/>
  <path id="__xf16b_" class="fil0" d="M21 36l30 18 -21 18 -30 -20 21 -16zm60 34l0 6 -30 18 0 0 0 0 0 0 0 0 -30 -18 0 -6 9 5 21 -17 0 0 0 0 0 0 0 0 21 17 9 -5zm-51 -70l21 17 -30 19 -21 -17 30 -19zm51 36l20 16 -30 20 -20 -18 30 -18zm-10 -36l30 19 -20 17 -30 -19 20 -17z"/>
  <path class="fil1 str0" d="M178 24c-3,0 -7,1 -10,2 -3,2 -6,4 -8,6 -2,3 -3,5 -5,9 -1,3 -1,6 -1,10 0,4 0,7 1,11 2,3 3,6 5,8 2,3 5,5 8,6 3,1 7,2 10,2 4,0 7,-1 11,-2 3,-1 5,-3 7,-6 2,-2 4,-5 5,-8 1,-4 2,-7 2,-11 0,-4 -1,-7 -2,-10 -1,-4 -3,-6 -5,-9 -2,-2 -4,-4 -7,-6 -4,-1 -7,-2 -11,-2zm0 8c3,0 5,0 7,1 2,1 4,3 5,5 1,1 2,4 3,6 1,2 1,5 1,7 0,3 0,5 -1,7 -1,3 -2,5 -3,7 -1,2 -3,3 -5,4 -2,1 -4,2 -7,2 -2,0 -5,-1 -7,-2 -2,-1 -3,-2 -5,-4 -1,-2 -2,-4 -2,-7 -1,-2 -1,-4 -1,-7 0,-2 0,-5 1,-7 0,-3 1,-5 2,-6 2,-2 3,-4 5,-5 2,-1 5,-1 7,-1zm32 45l8 0 0 -22c0,-3 1,-6 3,-7 1,-2 3,-3 5,-3 3,0 4,1 5,2 1,1 2,3 2,6l0 24 8 0 0 -22c0,-3 1,-6 2,-7 1,-2 3,-3 6,-3 2,0 3,0 4,1 1,0 1,1 2,2 0,1 0,2 1,3 0,1 0,2 0,4l0 22 8 0 0 -26c0,-4 -1,-7 -3,-9 -2,-2 -5,-3 -9,-3 -3,0 -5,0 -7,1 -2,1 -4,3 -5,5 -1,-2 -2,-4 -4,-5 -2,-1 -4,-1 -7,-1 -2,0 -5,0 -6,1 -2,1 -4,3 -5,5l0 0 0 -5 -8 0 0 37zm63 0l8 0 0 -22c0,-3 1,-5 2,-7 2,-2 4,-3 7,-3 2,0 4,1 5,2 1,1 2,4 2,6l0 24 8 0 0 -26c0,-4 -1,-7 -3,-9 -3,-2 -6,-3 -10,-3 -2,0 -5,0 -7,1 -2,2 -3,3 -4,5l-1 0 0 -5 -7 0 0 37zm41 0l8 0 0 -37 -8 0 0 37zm0 -44l8 0 0 -8 -8 0 0 8zm27 20l16 0c3,0 5,1 7,3 1,1 2,3 2,5 0,3 -1,5 -2,6 -2,2 -4,3 -7,3l-16 0 0 -17zm-9 24l24 0c6,0 11,-1 14,-4 3,-3 5,-6 5,-10 0,-4 -1,-7 -2,-9 -2,-3 -5,-4 -8,-5l0 0c3,-1 5,-2 6,-4 1,-2 2,-4 2,-7 0,-4 -2,-7 -4,-9 -3,-2 -7,-4 -12,-4l-25 0 0 52zm9 -44l15 0c3,0 5,0 6,1 1,1 2,3 2,6 0,2 -1,4 -2,5 -2,1 -4,2 -6,2l-15 0 0 -14zm58 38c-2,0 -3,0 -5,-1 -1,0 -2,-1 -3,-3 -1,-1 -1,-2 -2,-4 0,-2 -1,-3 -1,-5 0,-1 1,-3 1,-5 1,-1 1,-3 2,-4 1,-1 2,-2 3,-3 2,-1 3,-1 5,-1 2,0 3,0 5,1 1,1 2,2 3,3 1,1 2,3 2,4 0,2 1,4 1,5 0,2 -1,3 -1,5 0,2 -1,3 -2,4 -1,2 -2,3 -3,3 -2,1 -3,1 -5,1zm0 7c6,0 10,-2 14,-6 3,-3 5,-8 5,-14 0,-6 -2,-10 -5,-14 -4,-4 -8,-5 -14,-5 -6,0 -10,1 -14,5 -3,4 -5,8 -5,14 0,6 2,11 5,14 4,4 8,6 14,6zm22 -1l9 0 9 -14 10 14 10 0 -15 -20 13 -17 -9 0 -9 11 -7 -11 -10 0 13 17 -14 20z"/>
 </g>
</svg>
